<!DOCTYPE svg PUBLIC "-//W3C//DTD SVG 1.1//EN" "http://www.w3.org/Graphics/SVG/1.1/DTD/svg11.dtd">
<!-- Uploaded to: SVG Repo, www.svgrepo.com, Transformed by: SVG Repo Mixer Tools -->
<svg width="800px" height="800px" viewBox="0 0 1024 1024" xmlns="http://www.w3.org/2000/svg" fill="#000000">
<g id="SVGRepo_bgCarrier" stroke-width="0"/>
<g id="SVGRepo_tracerCarrier" stroke-linecap="round" stroke-linejoin="round"/>
<g id="SVGRepo_iconCarrier">
<path fill="#eff9fb" d="M513.28 448a64 64 0 1 1 76.544 49.728A96 96 0 0 0 768 448h64a160 160 0 0 1-320 0h1.28zm-126.976-29.696a256 256 0 1 0 43.52-180.48A256 256 0 0 1 832 448h-64a192 192 0 0 0-381.696-29.696zm105.664 249.472L285.696 874.048a96 96 0 0 1-135.68-135.744l206.208-206.272a320 320 0 1 1 135.744 135.744zm-54.464-36.032a321.92 321.92 0 0 1-45.248-45.248L195.2 783.552a32 32 0 1 0 45.248 45.248l197.056-197.12z"/>
</g>
</svg>